<svg xmlns="http://www.w3.org/2000/svg" viewBox="0 0 512 512" role="img" aria-label="Leaf logo">
  <path d="M 476.00 31.11 L 384.00 34.22 L 316.44 44.89 L 265.78 59.56 L 223.11 76.89 L 171.56 105.33 L 146.67 123.56 L 102.22 164.89 L 73.78 203.11 L 56.00 236.89 L 41.78 276.44 L 34.22 313.78 L 34.22 370.67 L 44.89 416.00 L 56.00 447.11 L 61.33 450.67 L 72.89 451.56 L 80.00 456.44 L 84.44 465.78 L 85.33 478.22 L 100.44 480.89 L 171.11 480.44 L 201.33 476.89 L 244.89 466.67 L 273.33 456.00 L 318.22 430.67 L 356.44 400.44 L 392.00 357.33 L 409.33 325.33 L 431.11 271.56 L 448.89 216.44 L 459.56 175.56 L 470.22 117.78 L 474.22 69.33 L 476.89 62.22 L 477.78 36.44 Z" fill="#2b4a3d" stroke="#111111" stroke-width="5.5" stroke-linejoin="round" stroke-linecap="round"/>
  <path d="M 316.89 176.00 L 313.33 176.44 L 292.89 189.33 L 283.11 193.78 L 276.00 200.00 L 271.56 201.33 L 226.67 233.33 L 186.67 268.44 L 168.89 286.22 L 143.56 315.11 L 139.11 322.67 L 119.56 347.11 L 117.78 351.56 L 112.44 357.33 L 110.67 361.78 L 105.33 368.44 L 104.00 372.89 L 100.89 375.56 L 100.44 379.56 L 94.67 385.78 L 93.33 390.67 L 91.11 392.44 L 89.33 397.78 L 84.00 405.33 L 65.78 442.67 L 65.33 449.78 L 72.89 451.56 L 78.67 455.11 L 83.11 461.33 L 84.44 468.89 L 86.67 468.44 L 87.56 463.56 L 94.22 452.00 L 94.22 448.89 L 97.33 445.33 L 98.67 440.44 L 100.89 438.67 L 101.33 435.11 L 104.00 432.00 L 109.33 420.00 L 118.67 406.22 L 119.56 402.22 L 122.22 400.00 L 133.78 380.44 L 136.44 378.22 L 137.78 373.78 L 143.56 367.56 L 144.89 363.11 L 150.67 356.89 L 152.00 352.44 L 161.33 341.78 L 162.67 338.22 L 172.00 328.00 L 180.44 316.00 L 186.22 310.67 L 194.22 299.11 L 208.00 284.89 L 220.00 269.78 L 291.56 198.22 L 307.11 186.22 Z" fill="#ffffff"/>
</svg>
